# Blender 4.0.2
# www.blender.org
mtllib beeam.mtl
o Cylinder
v -0.000000 -1.000000 -1.320000
v 0.000000 -0.000000 -1.320000
v 0.933381 -1.000000 -0.933381
v 0.933381 -0.000000 -0.933381
v 1.320000 -1.000000 -0.000000
v 1.320000 0.000000 0.000000
v 0.933381 -0.999999 0.933381
v 0.933381 0.000000 0.933381
v -0.000000 -0.999999 1.320000
v 0.000000 0.000000 1.320000
v -0.933381 -0.999999 0.933381
v -0.933381 0.000000 0.933381
v -1.320000 -1.000000 -0.000000
v -1.320000 0.000000 0.000000
v -0.933381 -1.000000 -0.933381
v -0.933381 -0.000000 -0.933381
v -0.000000 -1.000000 -1.056000
v 0.000000 -0.000000 -1.056000
v 0.746705 -1.000000 -0.746705
v 0.746705 -0.000000 -0.746705
v 1.056000 -1.000000 -0.000000
v 1.056000 0.000000 0.000000
v 0.746705 -0.999999 0.746705
v 0.746705 0.000000 0.746705
v -0.000000 -0.999999 1.056000
v 0.000000 0.000000 1.056000
v -0.746705 -0.999999 0.746705
v -0.746705 0.000000 0.746705
v -1.056000 -1.000000 -0.000000
v -1.056000 0.000000 0.000000
v -0.746705 -1.000000 -0.746705
v -0.746705 -0.000000 -0.746705
v -0.000000 -1.000000 -0.792000
v 0.000000 -0.000000 -0.792000
v 0.560029 -1.000000 -0.560029
v 0.560029 -0.000000 -0.560029
v 0.792000 -1.000000 -0.000000
v 0.792000 0.000000 0.000000
v 0.560029 -0.999999 0.560029
v 0.560029 0.000000 0.560029
v -0.000000 -0.999999 0.792000
v 0.000000 0.000000 0.792000
v -0.560029 -0.999999 0.560029
v -0.560029 0.000000 0.560029
v -0.792000 -1.000000 -0.000000
v -0.792000 0.000000 0.000000
v -0.560029 -1.000000 -0.560029
v -0.560029 -0.000000 -0.560029
v -0.000000 -1.000000 -0.528000
v 0.000000 -0.000000 -0.528000
v 0.373352 -1.000000 -0.373352
v 0.373352 -0.000000 -0.373352
v 0.528000 -1.000000 -0.000000
v 0.528000 0.000000 0.000000
v 0.373352 -1.000000 0.373352
v 0.373352 0.000000 0.373352
v -0.000000 -0.999999 0.528000
v 0.000000 0.000000 0.528000
v -0.373352 -1.000000 0.373352
v -0.373352 0.000000 0.373352
v -0.528000 -1.000000 -0.000000
v -0.528000 0.000000 0.000000
v -0.373352 -1.000000 -0.373352
v -0.373352 -0.000000 -0.373352
v -0.000000 -1.000000 -0.264000
v 0.000000 -0.000000 -0.264000
v 0.186676 -1.000000 -0.186676
v 0.186676 -0.000000 -0.186676
v 0.264000 -1.000000 -0.000000
v 0.264000 0.000000 0.000000
v 0.186676 -1.000000 0.186676
v 0.186676 0.000000 0.186676
v -0.000000 -1.000000 0.264000
v 0.000000 0.000000 0.264000
v -0.186676 -1.000000 0.186676
v -0.186676 0.000000 0.186676
v -0.264000 -1.000000 -0.000000
v -0.264000 0.000000 0.000000
v -0.186676 -1.000000 -0.186676
v -0.186676 -0.000000 -0.186676
vn 0.3827 -0.0000 -0.9239
vn 0.9239 -0.0000 -0.3827
vn 0.9239 -0.0000 0.3827
vn 0.3827 -0.0000 0.9239
vn -0.3827 -0.0000 0.9239
vn -0.9239 -0.0000 0.3827
vn -0.9239 -0.0000 -0.3827
vn -0.3827 -0.0000 -0.9239
vt 1.000000 0.000000
vt 1.000000 1.000000
vt 0.875000 1.000000
vt 0.875000 0.000000
vt 0.750000 1.000000
vt 0.750000 0.000000
vt 0.625000 1.000000
vt 0.625000 0.000000
vt 0.500000 1.000000
vt 0.500000 0.000000
vt 0.375000 1.000000
vt 0.375000 0.000000
vt 0.250000 1.000000
vt 0.250000 0.000000
vt 0.125000 1.000000
vt 0.125000 0.000000
vt 0.000000 1.000000
vt 0.000000 0.000000
s 0
f 1/1/1 2/2/1 4/3/1 3/4/1
f 3/4/2 4/3/2 6/5/2 5/6/2
f 5/6/3 6/5/3 8/7/3 7/8/3
f 7/8/4 8/7/4 10/9/4 9/10/4
f 9/10/5 10/9/5 12/11/5 11/12/5
f 11/12/6 12/11/6 14/13/6 13/14/6
f 13/14/7 14/13/7 16/15/7 15/16/7
f 15/16/8 16/15/8 2/17/8 1/18/8
f 17/1/1 18/2/1 20/3/1 19/4/1
f 19/4/2 20/3/2 22/5/2 21/6/2
f 21/6/3 22/5/3 24/7/3 23/8/3
f 23/8/4 24/7/4 26/9/4 25/10/4
f 25/10/5 26/9/5 28/11/5 27/12/5
f 27/12/6 28/11/6 30/13/6 29/14/6
f 29/14/7 30/13/7 32/15/7 31/16/7
f 31/16/8 32/15/8 18/17/8 17/18/8
f 33/1/1 34/2/1 36/3/1 35/4/1
f 35/4/2 36/3/2 38/5/2 37/6/2
f 37/6/3 38/5/3 40/7/3 39/8/3
f 39/8/4 40/7/4 42/9/4 41/10/4
f 41/10/5 42/9/5 44/11/5 43/12/5
f 43/12/6 44/11/6 46/13/6 45/14/6
f 45/14/7 46/13/7 48/15/7 47/16/7
f 47/16/8 48/15/8 34/17/8 33/18/8
f 49/1/1 50/2/1 52/3/1 51/4/1
f 51/4/2 52/3/2 54/5/2 53/6/2
f 53/6/3 54/5/3 56/7/3 55/8/3
f 55/8/4 56/7/4 58/9/4 57/10/4
f 57/10/5 58/9/5 60/11/5 59/12/5
f 59/12/6 60/11/6 62/13/6 61/14/6
f 61/14/7 62/13/7 64/15/7 63/16/7
f 63/16/8 64/15/8 50/17/8 49/18/8
f 65/1/1 66/2/1 68/3/1 67/4/1
f 67/4/2 68/3/2 70/5/2 69/6/2
f 69/6/3 70/5/3 72/7/3 71/8/3
f 71/8/4 72/7/4 74/9/4 73/10/4
f 73/10/5 74/9/5 76/11/5 75/12/5
f 75/12/6 76/11/6 78/13/6 77/14/6
f 77/14/7 78/13/7 80/15/7 79/16/7
f 79/16/8 80/15/8 66/17/8 65/18/8
